<?xml version="1.0" standalone="no"?>
<!DOCTYPE svg PUBLIC "-//W3C//DTD SVG 20010904//EN"
 "http://www.w3.org/TR/2001/REC-SVG-20010904/DTD/svg10.dtd">
<svg version="1.0" xmlns="http://www.w3.org/2000/svg"
 width="574.000000pt" height="317.000000pt" viewBox="0 0 574.000000 317.000000"
 preserveAspectRatio="xMidYMid meet">

<g transform="translate(0.000000,317.000000) scale(0.100000,-0.100000)"
fill="#000000" stroke="none">
<path d="M2210 2775 c0 -4 7 -19 15 -35 8 -16 29 -89 46 -162 17 -73 42 -178
55 -233 127 -531 143 -605 137 -641 l-6 -34 122 0 121 0 -7 28 c-9 37 -9 39
27 187 31 129 36 154 83 355 89 381 112 469 129 503 l18 37 -115 0 -114 0 5
-27 c7 -38 -31 -185 -53 -200 -20 -15 -170 -18 -192 -4 -21 13 -61 180 -50
208 l9 23 -115 0 c-63 0 -115 -2 -115 -5z m422 -427 c15 -12 13 -27 -16 -168
-29 -143 -47 -184 -54 -128 -2 13 -14 74 -27 137 -28 130 -30 157 -12 164 24
10 94 7 109 -5z"/>
<path d="M2990 2777 c0 -1 4 -17 9 -35 7 -22 6 -49 -3 -85 -8 -28 -26 -104
-40 -167 -48 -205 -64 -272 -153 -645 -14 -60 -32 -122 -39 -137 -8 -15 -14
-29 -14 -33 0 -3 50 -5 111 -5 111 0 111 0 105 23 -6 25 28 173 45 194 8 9 39
13 104 13 65 0 96 -4 104 -13 17 -21 51 -169 45 -194 -6 -23 -6 -23 106 -23
103 0 112 1 105 18 -16 35 -44 129 -59 197 -8 39 -32 138 -51 220 -39 163 -50
211 -91 385 -14 63 -32 139 -40 167 -9 36 -10 63 -3 85 5 18 9 34 9 35 0 2
-56 3 -125 3 -69 0 -125 -1 -125 -3z m162 -490 c15 -73 27 -147 27 -165 l1
-33 -62 3 -63 3 0 40 c1 33 36 231 52 284 7 28 18 -2 45 -132z"/>
<path d="M2210 1335 l0 -55 624 0 c696 0 642 -6 630 71 l-7 39 -623 0 -624 0
0 -55z"/>
<path d="M497 948 c-5 -49 -52 -252 -117 -511 -30 -122 -31 -120 46 -115 l48
3 11 56 c6 30 15 61 19 67 4 7 32 12 70 12 l63 0 11 -42 c7 -24 13 -54 14 -68
3 -23 7 -25 66 -28 34 -2 62 1 62 6 0 5 -6 28 -14 53 -13 39 -32 117 -97 399
-11 47 -24 101 -29 121 -6 20 -10 50 -10 68 l0 31 -69 0 -68 0 -6 -52z m97
-249 c25 -111 24 -119 -24 -119 -25 0 -40 5 -40 13 0 27 35 177 41 177 4 0 14
-32 23 -71z"/>
<path d="M855 660 l0 -340 162 0 162 0 10 38 c23 80 24 79 -92 74 -84 -4 -105
-2 -115 11 -10 12 -12 77 -10 286 l3 271 -60 0 -60 0 0 -340z"/>
<path d="M1241 950 c-6 -28 -11 -55 -11 -60 0 -5 28 -7 64 -3 59 5 65 4 76
-16 8 -16 11 -97 8 -287 l-3 -264 60 0 60 0 -3 280 -3 279 26 7 c14 3 46 3 72
-1 l46 -7 -7 53 c-4 29 -9 56 -12 61 -3 4 -86 8 -184 8 l-178 0 -11 -50z"/>
<path d="M1695 660 l0 -340 162 0 c94 0 164 4 168 10 3 5 8 31 12 58 l5 49
-101 -5 c-126 -6 -131 -3 -131 88 0 81 11 96 70 86 l40 -6 0 65 0 66 -34 -6
c-19 -4 -44 -4 -56 0 -19 6 -21 13 -18 83 l3 77 114 0 113 0 -5 48 c-4 26 -9
52 -12 57 -4 6 -74 10 -168 10 l-162 0 0 -340z"/>
<path d="M2107 663 l2 -338 58 0 57 0 -3 107 c-1 59 0 117 4 128 9 27 43 26
55 -2 15 -38 51 -198 48 -216 -3 -14 7 -17 60 -20 36 -2 62 1 62 7 0 5 -11 56
-25 113 -31 128 -31 139 0 168 25 23 25 26 25 180 l0 156 -28 27 c-28 27 -29
27 -173 27 l-144 0 2 -337z m221 215 c18 -18 16 -162 -2 -177 -8 -7 -34 -11
-58 -9 l-43 3 -3 89 c-2 65 1 92 10 98 20 12 82 10 96 -4z"/>
<path d="M2537 663 l3 -338 60 -3 60 -3 2 193 c3 167 5 189 16 163 7 -16 42
-103 79 -192 l66 -163 56 0 56 0 0 317 c0 175 2 327 5 338 5 18 -1 20 -60 23
l-65 3 3 -192 c2 -115 0 -189 -6 -185 -5 3 -42 89 -82 191 l-73 185 -61 0 -61
0 2 -337z"/>
<path d="M3150 961 c0 -21 -4 -51 -9 -67 -5 -16 -28 -110 -51 -209 -42 -182
-72 -301 -85 -342 -7 -22 -5 -23 58 -23 l64 0 6 43 c2 23 10 54 16 70 10 25
14 27 70 27 35 0 63 -5 69 -12 5 -7 14 -38 19 -68 l8 -55 64 -3 c62 -3 63 -3
57 20 -4 13 -20 75 -35 138 -66 269 -103 428 -108 473 l-6 47 -68 0 -69 0 0
-39z m110 -358 c0 -20 -5 -23 -40 -23 -46 0 -46 -2 -25 96 24 115 27 117 47
29 9 -44 18 -90 18 -102z"/>
<path d="M3486 983 c-2 -10 -7 -37 -11 -60 l-7 -42 64 6 c51 4 66 2 76 -10 11
-12 13 -76 10 -287 l-3 -271 58 3 59 3 -1 277 -2 277 26 7 c14 3 46 3 72 -1
l46 -7 -7 53 c-4 29 -9 56 -12 61 -3 4 -86 8 -184 8 -162 0 -179 -2 -184 -17z"/>
<path d="M3935 660 l0 -341 58 3 58 3 2 338 2 337 -60 0 -60 0 0 -340z"/>
<path d="M4113 988 c18 -50 33 -112 78 -322 28 -131 53 -263 56 -292 l6 -54
68 0 c65 0 69 1 69 23 0 12 14 87 30 167 17 80 42 201 56 270 15 69 32 143 40
165 7 22 14 43 14 48 0 4 -28 7 -62 7 l-63 0 -34 -193 c-19 -105 -39 -201 -44
-212 -11 -20 -20 19 -73 308 l-18 97 -64 0 c-47 0 -63 -3 -59 -12z"/>
<path d="M4587 663 l3 -338 165 -3 c185 -3 165 -12 179 78 l6 36 -112 -1 -113
0 0 85 0 85 53 -2 52 -2 0 64 0 64 -52 -2 -53 -2 0 80 0 80 110 1 110 1 -3 34
c-7 85 8 79 -180 79 l-167 0 2 -337z"/>
<path d="M5027 972 c-27 -28 -27 -30 -27 -170 l0 -142 31 -27 c27 -24 41 -29
112 -33 l82 -5 3 -68 c3 -81 -6 -97 -58 -97 -48 0 -63 18 -54 64 l6 36 -64 0
-63 0 3 -77 c3 -67 8 -82 30 -105 25 -27 28 -28 142 -28 114 0 117 0 143 28
27 28 27 29 27 174 l0 146 -31 26 c-27 23 -39 26 -109 26 -90 0 -90 0 -90 90
0 65 13 80 67 80 46 0 57 -13 49 -59 -3 -23 -3 -41 1 -42 13 -1 87 -2 105 0
14 1 16 11 11 79 -5 65 -10 81 -31 105 -25 26 -28 27 -142 27 -114 0 -117 0
-143 -28z"/>
</g>
</svg>
